<svg width="66" height="47" viewBox="0 0 66 47" fill="none" xmlns="http://www.w3.org/2000/svg">
<path d="M0 46.9996V0.00292969H9.52929V37.1157C9.52929 38.5763 9.12269 40.0082 8.35501 41.2509C6.96445 43.5019 4.85782 45.2203 2.37335 46.1303L0 46.9996Z" fill="white"/>
<path fill-rule="evenodd" clip-rule="evenodd" d="M0 0.00279164V8.01653L32.8472 8.01653C31.4266 3.51764 27.3253 0.402106 22.6102 0.240114L15.6213 0H2.1657V0.00279164H0Z" fill="white"/>
<path fill-rule="evenodd" clip-rule="evenodd" d="M65.7056 10.6181V18.2642L32.8578 18.2642C34.2818 13.9615 38.2382 11.0035 42.7679 10.8551L50.0837 10.6152H63.5399V10.6181H65.7056Z" fill="white"/>
<path fill-rule="evenodd" clip-rule="evenodd" d="M65.7056 46.7516V39.1054L32.8578 39.1054C34.2818 43.4081 38.2382 46.3661 42.7679 46.5146L50.0837 46.7544H63.5399V46.7516H65.7056Z" fill="white"/>
<rect x="48.7405" y="24.9956" width="16.9761" height="7.38369" fill="white"/>
<path d="M24.7146 43.047C24.7146 45.2286 22.8553 46.9972 20.5618 46.9972C18.2682 46.9972 16.4089 45.2286 16.4089 43.047C16.4089 40.8653 18.2682 39.0967 20.5618 39.0967C22.8553 39.0967 24.7146 40.8653 24.7146 43.047Z" fill="white"/>
<path d="M44.162 28.5224C44.162 31.4984 41.6316 33.911 38.5101 33.911C35.3886 33.911 32.8582 31.4984 32.8582 28.5224C32.8582 25.5463 35.3886 23.1338 38.5101 23.1338C41.6316 23.1338 44.162 25.5463 44.162 28.5224Z" fill="#1640D4"/>
<path fill-rule="evenodd" clip-rule="evenodd" d="M0.000488281 27.3472H8.95501L9.00182 27.3315L17.8142 27.3315C22.4348 27.3315 26.4344 24.1202 27.4328 19.6089H0.000488281V27.3472Z" fill="#1640D4"/>
</svg>
